<mxfile host="app.diagrams.net" modified="2022-09-05T07:08:22.215Z" agent="5.0 (Macintosh; Intel Mac OS X 10_15_7) AppleWebKit/537.36 (KHTML, like Gecko) Chrome/97.0.4692.99 Safari/537.36" etag="gEewfVKRoGryWhaoWyyw" version="20.2.8" type="github">
  <diagram id="xRL6QHjBoIZbNnnp0_wV" name="第 1 页">
    <mxGraphModel dx="1426" dy="1938" grid="1" gridSize="10" guides="1" tooltips="1" connect="1" arrows="1" fold="1" page="1" pageScale="1" pageWidth="827" pageHeight="1169" math="0" shadow="0">
      <root>
        <mxCell id="0" />
        <mxCell id="1" parent="0" />
        <mxCell id="JJxQaTKSTEjUSaWtiFOi-1" value="All Features Embedding" style="rounded=0;whiteSpace=wrap;html=1;fillColor=#FFE6CC;strokeColor=none;gradientDirection=north;fontColor=#000000;gradientColor=#FFFFFF;" vertex="1" parent="1">
          <mxGeometry x="260" y="320" width="430" height="20" as="geometry" />
        </mxCell>
        <mxCell id="JJxQaTKSTEjUSaWtiFOi-2" value="" style="rounded=0;whiteSpace=wrap;html=1;fillColor=#000000;gradientColor=none;gradientDirection=north;" vertex="1" parent="1">
          <mxGeometry x="295" y="380" width="10" height="10" as="geometry" />
        </mxCell>
        <mxCell id="JJxQaTKSTEjUSaWtiFOi-3" value="" style="rounded=0;whiteSpace=wrap;html=1;fillColor=#D9D9D9;gradientColor=none;gradientDirection=north;" vertex="1" parent="1">
          <mxGeometry x="305" y="380" width="10" height="10" as="geometry" />
        </mxCell>
        <mxCell id="JJxQaTKSTEjUSaWtiFOi-4" value="" style="rounded=0;whiteSpace=wrap;html=1;fillColor=#000000;gradientColor=none;gradientDirection=north;" vertex="1" parent="1">
          <mxGeometry x="315" y="380" width="10" height="10" as="geometry" />
        </mxCell>
        <mxCell id="JJxQaTKSTEjUSaWtiFOi-5" value="" style="rounded=0;whiteSpace=wrap;html=1;fillColor=#D9D9D9;gradientColor=none;gradientDirection=north;" vertex="1" parent="1">
          <mxGeometry x="325" y="380" width="10" height="10" as="geometry" />
        </mxCell>
        <mxCell id="JJxQaTKSTEjUSaWtiFOi-6" value="" style="rounded=0;whiteSpace=wrap;html=1;fillColor=#000000;gradientColor=none;gradientDirection=north;" vertex="1" parent="1">
          <mxGeometry x="393" y="380" width="10" height="10" as="geometry" />
        </mxCell>
        <mxCell id="JJxQaTKSTEjUSaWtiFOi-7" value="" style="rounded=0;whiteSpace=wrap;html=1;fillColor=#D9D9D9;gradientColor=none;gradientDirection=north;" vertex="1" parent="1">
          <mxGeometry x="403" y="380" width="10" height="10" as="geometry" />
        </mxCell>
        <mxCell id="JJxQaTKSTEjUSaWtiFOi-8" value="" style="rounded=0;whiteSpace=wrap;html=1;fillColor=#000000;gradientColor=none;gradientDirection=north;" vertex="1" parent="1">
          <mxGeometry x="413" y="380" width="10" height="10" as="geometry" />
        </mxCell>
        <mxCell id="JJxQaTKSTEjUSaWtiFOi-9" value="" style="rounded=0;whiteSpace=wrap;html=1;fillColor=#D9D9D9;gradientColor=none;gradientDirection=north;" vertex="1" parent="1">
          <mxGeometry x="423" y="380" width="10" height="10" as="geometry" />
        </mxCell>
        <mxCell id="JJxQaTKSTEjUSaWtiFOi-10" value="" style="rounded=0;whiteSpace=wrap;html=1;fillColor=#000000;gradientColor=none;gradientDirection=north;" vertex="1" parent="1">
          <mxGeometry x="503" y="380" width="10" height="10" as="geometry" />
        </mxCell>
        <mxCell id="JJxQaTKSTEjUSaWtiFOi-11" value="" style="rounded=0;whiteSpace=wrap;html=1;fillColor=#D9D9D9;gradientColor=none;gradientDirection=north;" vertex="1" parent="1">
          <mxGeometry x="513" y="380" width="10" height="10" as="geometry" />
        </mxCell>
        <mxCell id="JJxQaTKSTEjUSaWtiFOi-12" value="" style="rounded=0;whiteSpace=wrap;html=1;fillColor=#000000;gradientColor=none;gradientDirection=north;" vertex="1" parent="1">
          <mxGeometry x="523" y="380" width="10" height="10" as="geometry" />
        </mxCell>
        <mxCell id="JJxQaTKSTEjUSaWtiFOi-13" value="" style="rounded=0;whiteSpace=wrap;html=1;fillColor=#D9D9D9;gradientColor=none;gradientDirection=north;" vertex="1" parent="1">
          <mxGeometry x="533" y="380" width="10" height="10" as="geometry" />
        </mxCell>
        <mxCell id="JJxQaTKSTEjUSaWtiFOi-14" value="" style="rounded=0;whiteSpace=wrap;html=1;fillColor=#000000;gradientColor=none;gradientDirection=north;" vertex="1" parent="1">
          <mxGeometry x="601" y="380" width="10" height="10" as="geometry" />
        </mxCell>
        <mxCell id="JJxQaTKSTEjUSaWtiFOi-15" value="" style="rounded=0;whiteSpace=wrap;html=1;fillColor=#D9D9D9;gradientColor=none;gradientDirection=north;" vertex="1" parent="1">
          <mxGeometry x="611" y="380" width="10" height="10" as="geometry" />
        </mxCell>
        <mxCell id="JJxQaTKSTEjUSaWtiFOi-16" value="" style="rounded=0;whiteSpace=wrap;html=1;fillColor=#000000;gradientColor=none;gradientDirection=north;" vertex="1" parent="1">
          <mxGeometry x="621" y="380" width="10" height="10" as="geometry" />
        </mxCell>
        <mxCell id="JJxQaTKSTEjUSaWtiFOi-17" value="" style="rounded=0;whiteSpace=wrap;html=1;fillColor=#D9D9D9;gradientColor=none;gradientDirection=north;" vertex="1" parent="1">
          <mxGeometry x="631" y="380" width="10" height="10" as="geometry" />
        </mxCell>
        <mxCell id="JJxQaTKSTEjUSaWtiFOi-18" value="" style="rounded=0;whiteSpace=wrap;html=1;fillColor=#000000;gradientColor=none;gradientDirection=north;" vertex="1" parent="1">
          <mxGeometry x="299" y="440" width="10" height="10" as="geometry" />
        </mxCell>
        <mxCell id="JJxQaTKSTEjUSaWtiFOi-19" value="" style="rounded=0;whiteSpace=wrap;html=1;fillColor=#D9D9D9;gradientColor=none;gradientDirection=north;" vertex="1" parent="1">
          <mxGeometry x="299" y="450" width="10" height="10" as="geometry" />
        </mxCell>
        <mxCell id="JJxQaTKSTEjUSaWtiFOi-20" value="" style="rounded=0;whiteSpace=wrap;html=1;fillColor=#000000;gradientColor=none;gradientDirection=north;" vertex="1" parent="1">
          <mxGeometry x="299" y="460" width="10" height="10" as="geometry" />
        </mxCell>
        <mxCell id="JJxQaTKSTEjUSaWtiFOi-21" value="" style="rounded=0;whiteSpace=wrap;html=1;fillColor=#D9D9D9;gradientColor=none;gradientDirection=north;" vertex="1" parent="1">
          <mxGeometry x="299" y="470" width="10" height="10" as="geometry" />
        </mxCell>
        <mxCell id="JJxQaTKSTEjUSaWtiFOi-22" value="" style="rounded=0;whiteSpace=wrap;html=1;fillColor=#000000;gradientColor=none;gradientDirection=north;" vertex="1" parent="1">
          <mxGeometry x="319" y="440" width="10" height="10" as="geometry" />
        </mxCell>
        <mxCell id="JJxQaTKSTEjUSaWtiFOi-23" value="" style="rounded=0;whiteSpace=wrap;html=1;fillColor=#D9D9D9;gradientColor=none;gradientDirection=north;" vertex="1" parent="1">
          <mxGeometry x="319" y="450" width="10" height="10" as="geometry" />
        </mxCell>
        <mxCell id="JJxQaTKSTEjUSaWtiFOi-24" value="" style="rounded=0;whiteSpace=wrap;html=1;fillColor=#000000;gradientColor=none;gradientDirection=north;" vertex="1" parent="1">
          <mxGeometry x="319" y="460" width="10" height="10" as="geometry" />
        </mxCell>
        <mxCell id="JJxQaTKSTEjUSaWtiFOi-25" value="" style="rounded=0;whiteSpace=wrap;html=1;fillColor=#D9D9D9;gradientColor=none;gradientDirection=north;" vertex="1" parent="1">
          <mxGeometry x="319" y="470" width="10" height="10" as="geometry" />
        </mxCell>
        <mxCell id="JJxQaTKSTEjUSaWtiFOi-26" value="" style="rounded=0;whiteSpace=wrap;html=1;fillColor=#000000;gradientColor=none;gradientDirection=north;" vertex="1" parent="1">
          <mxGeometry x="397" y="440" width="10" height="10" as="geometry" />
        </mxCell>
        <mxCell id="JJxQaTKSTEjUSaWtiFOi-27" value="" style="rounded=0;whiteSpace=wrap;html=1;fillColor=#D9D9D9;gradientColor=none;gradientDirection=north;" vertex="1" parent="1">
          <mxGeometry x="397" y="450" width="10" height="10" as="geometry" />
        </mxCell>
        <mxCell id="JJxQaTKSTEjUSaWtiFOi-28" value="" style="rounded=0;whiteSpace=wrap;html=1;fillColor=#000000;gradientColor=none;gradientDirection=north;" vertex="1" parent="1">
          <mxGeometry x="397" y="460" width="10" height="10" as="geometry" />
        </mxCell>
        <mxCell id="JJxQaTKSTEjUSaWtiFOi-29" value="" style="rounded=0;whiteSpace=wrap;html=1;fillColor=#D9D9D9;gradientColor=none;gradientDirection=north;" vertex="1" parent="1">
          <mxGeometry x="397" y="470" width="10" height="10" as="geometry" />
        </mxCell>
        <mxCell id="JJxQaTKSTEjUSaWtiFOi-30" value="" style="rounded=0;whiteSpace=wrap;html=1;fillColor=#000000;gradientColor=none;gradientDirection=north;" vertex="1" parent="1">
          <mxGeometry x="417" y="440" width="10" height="10" as="geometry" />
        </mxCell>
        <mxCell id="JJxQaTKSTEjUSaWtiFOi-31" value="" style="rounded=0;whiteSpace=wrap;html=1;fillColor=#D9D9D9;gradientColor=none;gradientDirection=north;" vertex="1" parent="1">
          <mxGeometry x="417" y="450" width="10" height="10" as="geometry" />
        </mxCell>
        <mxCell id="JJxQaTKSTEjUSaWtiFOi-32" value="" style="rounded=0;whiteSpace=wrap;html=1;fillColor=#000000;gradientColor=none;gradientDirection=north;" vertex="1" parent="1">
          <mxGeometry x="417" y="460" width="10" height="10" as="geometry" />
        </mxCell>
        <mxCell id="JJxQaTKSTEjUSaWtiFOi-33" value="" style="rounded=0;whiteSpace=wrap;html=1;fillColor=#D9D9D9;gradientColor=none;gradientDirection=north;" vertex="1" parent="1">
          <mxGeometry x="417" y="470" width="10" height="10" as="geometry" />
        </mxCell>
        <mxCell id="JJxQaTKSTEjUSaWtiFOi-34" value="" style="rounded=0;whiteSpace=wrap;html=1;fillColor=#000000;gradientColor=none;gradientDirection=north;" vertex="1" parent="1">
          <mxGeometry x="506" y="440" width="10" height="10" as="geometry" />
        </mxCell>
        <mxCell id="JJxQaTKSTEjUSaWtiFOi-35" value="" style="rounded=0;whiteSpace=wrap;html=1;fillColor=#D9D9D9;gradientColor=none;gradientDirection=north;" vertex="1" parent="1">
          <mxGeometry x="506" y="450" width="10" height="10" as="geometry" />
        </mxCell>
        <mxCell id="JJxQaTKSTEjUSaWtiFOi-36" value="" style="rounded=0;whiteSpace=wrap;html=1;fillColor=#000000;gradientColor=none;gradientDirection=north;" vertex="1" parent="1">
          <mxGeometry x="506" y="460" width="10" height="10" as="geometry" />
        </mxCell>
        <mxCell id="JJxQaTKSTEjUSaWtiFOi-37" value="" style="rounded=0;whiteSpace=wrap;html=1;fillColor=#D9D9D9;gradientColor=none;gradientDirection=north;" vertex="1" parent="1">
          <mxGeometry x="506" y="470" width="10" height="10" as="geometry" />
        </mxCell>
        <mxCell id="JJxQaTKSTEjUSaWtiFOi-38" value="" style="rounded=0;whiteSpace=wrap;html=1;fillColor=#000000;gradientColor=none;gradientDirection=north;" vertex="1" parent="1">
          <mxGeometry x="526" y="440" width="10" height="10" as="geometry" />
        </mxCell>
        <mxCell id="JJxQaTKSTEjUSaWtiFOi-39" value="" style="rounded=0;whiteSpace=wrap;html=1;fillColor=#D9D9D9;gradientColor=none;gradientDirection=north;" vertex="1" parent="1">
          <mxGeometry x="526" y="450" width="10" height="10" as="geometry" />
        </mxCell>
        <mxCell id="JJxQaTKSTEjUSaWtiFOi-40" value="" style="rounded=0;whiteSpace=wrap;html=1;fillColor=#000000;gradientColor=none;gradientDirection=north;" vertex="1" parent="1">
          <mxGeometry x="526" y="460" width="10" height="10" as="geometry" />
        </mxCell>
        <mxCell id="JJxQaTKSTEjUSaWtiFOi-41" value="" style="rounded=0;whiteSpace=wrap;html=1;fillColor=#D9D9D9;gradientColor=none;gradientDirection=north;" vertex="1" parent="1">
          <mxGeometry x="526" y="470" width="10" height="10" as="geometry" />
        </mxCell>
        <mxCell id="JJxQaTKSTEjUSaWtiFOi-42" value="" style="rounded=0;whiteSpace=wrap;html=1;fillColor=#000000;gradientColor=none;gradientDirection=north;" vertex="1" parent="1">
          <mxGeometry x="606" y="440" width="10" height="10" as="geometry" />
        </mxCell>
        <mxCell id="JJxQaTKSTEjUSaWtiFOi-43" value="" style="rounded=0;whiteSpace=wrap;html=1;fillColor=#D9D9D9;gradientColor=none;gradientDirection=north;" vertex="1" parent="1">
          <mxGeometry x="606" y="450" width="10" height="10" as="geometry" />
        </mxCell>
        <mxCell id="JJxQaTKSTEjUSaWtiFOi-44" value="" style="rounded=0;whiteSpace=wrap;html=1;fillColor=#000000;gradientColor=none;gradientDirection=north;" vertex="1" parent="1">
          <mxGeometry x="606" y="460" width="10" height="10" as="geometry" />
        </mxCell>
        <mxCell id="JJxQaTKSTEjUSaWtiFOi-45" value="" style="rounded=0;whiteSpace=wrap;html=1;fillColor=#D9D9D9;gradientColor=none;gradientDirection=north;" vertex="1" parent="1">
          <mxGeometry x="606" y="470" width="10" height="10" as="geometry" />
        </mxCell>
        <mxCell id="JJxQaTKSTEjUSaWtiFOi-46" value="" style="rounded=0;whiteSpace=wrap;html=1;fillColor=#000000;gradientColor=none;gradientDirection=north;" vertex="1" parent="1">
          <mxGeometry x="626" y="440" width="10" height="10" as="geometry" />
        </mxCell>
        <mxCell id="JJxQaTKSTEjUSaWtiFOi-47" value="" style="rounded=0;whiteSpace=wrap;html=1;fillColor=#D9D9D9;gradientColor=none;gradientDirection=north;" vertex="1" parent="1">
          <mxGeometry x="626" y="450" width="10" height="10" as="geometry" />
        </mxCell>
        <mxCell id="JJxQaTKSTEjUSaWtiFOi-48" value="" style="rounded=0;whiteSpace=wrap;html=1;fillColor=#000000;gradientColor=none;gradientDirection=north;" vertex="1" parent="1">
          <mxGeometry x="626" y="460" width="10" height="10" as="geometry" />
        </mxCell>
        <mxCell id="JJxQaTKSTEjUSaWtiFOi-49" value="" style="rounded=0;whiteSpace=wrap;html=1;fillColor=#D9D9D9;gradientColor=none;gradientDirection=north;" vertex="1" parent="1">
          <mxGeometry x="626" y="470" width="10" height="10" as="geometry" />
        </mxCell>
        <mxCell id="JJxQaTKSTEjUSaWtiFOi-50" value="concat" style="rounded=1;whiteSpace=wrap;html=1;fillColor=#FFFFFF;gradientColor=none;gradientDirection=north;" vertex="1" parent="1">
          <mxGeometry x="294" y="400" width="40" height="20" as="geometry" />
        </mxCell>
        <mxCell id="JJxQaTKSTEjUSaWtiFOi-51" value="concat" style="rounded=1;whiteSpace=wrap;html=1;fillColor=#FFFFFF;gradientColor=none;gradientDirection=north;" vertex="1" parent="1">
          <mxGeometry x="502" y="400" width="40" height="20" as="geometry" />
        </mxCell>
        <mxCell id="JJxQaTKSTEjUSaWtiFOi-52" value="concat" style="rounded=1;whiteSpace=wrap;html=1;fillColor=#FFFFFF;gradientColor=none;gradientDirection=north;" vertex="1" parent="1">
          <mxGeometry x="393" y="400" width="40" height="20" as="geometry" />
        </mxCell>
        <mxCell id="JJxQaTKSTEjUSaWtiFOi-53" value="concat" style="rounded=1;whiteSpace=wrap;html=1;fillColor=#FFFFFF;gradientColor=none;gradientDirection=north;" vertex="1" parent="1">
          <mxGeometry x="601" y="400" width="40" height="20" as="geometry" />
        </mxCell>
        <mxCell id="JJxQaTKSTEjUSaWtiFOi-54" value="" style="shape=curlyBracket;whiteSpace=wrap;html=1;rounded=1;flipH=1;fillColor=#FFFFFF;gradientColor=none;gradientDirection=north;rotation=-90;" vertex="1" parent="1">
          <mxGeometry x="512" y="412" width="20" height="40" as="geometry" />
        </mxCell>
        <mxCell id="JJxQaTKSTEjUSaWtiFOi-55" value="" style="shape=curlyBracket;whiteSpace=wrap;html=1;rounded=1;flipH=1;fillColor=#FFFFFF;gradientColor=none;gradientDirection=north;rotation=-90;" vertex="1" parent="1">
          <mxGeometry x="402" y="412" width="20" height="40" as="geometry" />
        </mxCell>
        <mxCell id="JJxQaTKSTEjUSaWtiFOi-56" value="" style="shape=curlyBracket;whiteSpace=wrap;html=1;rounded=1;flipH=1;fillColor=#FFFFFF;gradientColor=none;gradientDirection=north;rotation=-90;" vertex="1" parent="1">
          <mxGeometry x="305" y="412" width="20" height="40" as="geometry" />
        </mxCell>
        <mxCell id="JJxQaTKSTEjUSaWtiFOi-57" value="" style="shape=curlyBracket;whiteSpace=wrap;html=1;rounded=1;flipH=1;fillColor=#FFFFFF;gradientColor=none;gradientDirection=north;rotation=-90;" vertex="1" parent="1">
          <mxGeometry x="610" y="412" width="20" height="40" as="geometry" />
        </mxCell>
        <mxCell id="JJxQaTKSTEjUSaWtiFOi-59" value="User Profiles&lt;br&gt;Features" style="text;html=1;strokeColor=none;fillColor=none;align=center;verticalAlign=middle;whiteSpace=wrap;rounded=0;" vertex="1" parent="1">
          <mxGeometry x="270" y="490" width="80" height="30" as="geometry" />
        </mxCell>
        <mxCell id="JJxQaTKSTEjUSaWtiFOi-60" value="Item&lt;br&gt;Features" style="text;html=1;strokeColor=none;fillColor=none;align=center;verticalAlign=middle;whiteSpace=wrap;rounded=0;" vertex="1" parent="1">
          <mxGeometry x="368" y="490" width="80" height="30" as="geometry" />
        </mxCell>
        <mxCell id="JJxQaTKSTEjUSaWtiFOi-61" value="UI&lt;br&gt;Features" style="text;html=1;strokeColor=none;fillColor=none;align=center;verticalAlign=middle;whiteSpace=wrap;rounded=0;" vertex="1" parent="1">
          <mxGeometry x="482" y="490" width="80" height="30" as="geometry" />
        </mxCell>
        <mxCell id="JJxQaTKSTEjUSaWtiFOi-62" value="UV&lt;br&gt;Features" style="text;html=1;strokeColor=none;fillColor=none;align=center;verticalAlign=middle;whiteSpace=wrap;rounded=0;" vertex="1" parent="1">
          <mxGeometry x="581" y="490" width="80" height="30" as="geometry" />
        </mxCell>
        <mxCell id="JJxQaTKSTEjUSaWtiFOi-63" value="" style="endArrow=classic;html=1;rounded=0;" edge="1" parent="1">
          <mxGeometry width="50" height="50" relative="1" as="geometry">
            <mxPoint x="621" y="375" as="sourcePoint" />
            <mxPoint x="621" y="345" as="targetPoint" />
          </mxGeometry>
        </mxCell>
        <mxCell id="JJxQaTKSTEjUSaWtiFOi-64" value="" style="endArrow=classic;html=1;rounded=0;" edge="1" parent="1">
          <mxGeometry width="50" height="50" relative="1" as="geometry">
            <mxPoint x="521.5" y="376" as="sourcePoint" />
            <mxPoint x="521.5" y="346" as="targetPoint" />
          </mxGeometry>
        </mxCell>
        <mxCell id="JJxQaTKSTEjUSaWtiFOi-65" value="" style="endArrow=classic;html=1;rounded=0;" edge="1" parent="1">
          <mxGeometry width="50" height="50" relative="1" as="geometry">
            <mxPoint x="411.5" y="377" as="sourcePoint" />
            <mxPoint x="411.5" y="347" as="targetPoint" />
          </mxGeometry>
        </mxCell>
        <mxCell id="JJxQaTKSTEjUSaWtiFOi-66" value="" style="endArrow=classic;html=1;rounded=0;" edge="1" parent="1">
          <mxGeometry width="50" height="50" relative="1" as="geometry">
            <mxPoint x="315" y="377" as="sourcePoint" />
            <mxPoint x="315" y="347" as="targetPoint" />
          </mxGeometry>
        </mxCell>
        <mxCell id="JJxQaTKSTEjUSaWtiFOi-68" value="E1" style="rounded=0;whiteSpace=wrap;html=1;fillColor=#FFE6CC;gradientColor=none;gradientDirection=north;strokeColor=default;" vertex="1" parent="1">
          <mxGeometry x="309" y="260" width="120" height="30" as="geometry" />
        </mxCell>
        <mxCell id="JJxQaTKSTEjUSaWtiFOi-69" value="E2" style="rounded=0;whiteSpace=wrap;html=1;fillColor=#FFE6CC;gradientColor=none;gradientDirection=north;strokeColor=default;" vertex="1" parent="1">
          <mxGeometry x="422" y="260" width="117" height="30" as="geometry" />
        </mxCell>
        <mxCell id="JJxQaTKSTEjUSaWtiFOi-70" value="E3" style="rounded=0;whiteSpace=wrap;html=1;fillColor=#FFE6CC;gradientColor=none;gradientDirection=north;strokeColor=default;" vertex="1" parent="1">
          <mxGeometry x="535" y="260" width="110" height="30" as="geometry" />
        </mxCell>
        <mxCell id="JJxQaTKSTEjUSaWtiFOi-71" value="" style="rounded=1;whiteSpace=wrap;html=1;fillColor=#FFFFFF;gradientColor=none;gradientDirection=north;" vertex="1" parent="1">
          <mxGeometry x="260" y="160" width="200" height="60" as="geometry" />
        </mxCell>
        <mxCell id="JJxQaTKSTEjUSaWtiFOi-72" value="" style="rounded=1;whiteSpace=wrap;html=1;fillColor=#FFFFFF;gradientColor=none;gradientDirection=north;" vertex="1" parent="1">
          <mxGeometry x="516" y="160" width="200" height="60" as="geometry" />
        </mxCell>
        <mxCell id="JJxQaTKSTEjUSaWtiFOi-77" value="" style="group" vertex="1" connectable="0" parent="1">
          <mxGeometry x="280" y="190" width="30" height="20" as="geometry" />
        </mxCell>
        <mxCell id="JJxQaTKSTEjUSaWtiFOi-73" value="" style="ellipse;whiteSpace=wrap;html=1;aspect=fixed;fillColor=#FFFFFF;gradientColor=none;gradientDirection=north;" vertex="1" parent="JJxQaTKSTEjUSaWtiFOi-77">
          <mxGeometry width="20" height="20" as="geometry" />
        </mxCell>
        <mxCell id="JJxQaTKSTEjUSaWtiFOi-74" value="" style="endArrow=none;html=1;rounded=0;entryX=1;entryY=0;entryDx=0;entryDy=0;exitX=0;exitY=1;exitDx=0;exitDy=0;" edge="1" parent="JJxQaTKSTEjUSaWtiFOi-77" source="JJxQaTKSTEjUSaWtiFOi-73" target="JJxQaTKSTEjUSaWtiFOi-73">
          <mxGeometry width="50" height="50" relative="1" as="geometry">
            <mxPoint x="6" y="17.333333333333332" as="sourcePoint" />
            <mxPoint x="26" y="4" as="targetPoint" />
          </mxGeometry>
        </mxCell>
        <mxCell id="JJxQaTKSTEjUSaWtiFOi-75" value="" style="endArrow=none;html=1;rounded=0;exitX=1;exitY=1;exitDx=0;exitDy=0;entryX=0;entryY=0;entryDx=0;entryDy=0;" edge="1" parent="JJxQaTKSTEjUSaWtiFOi-77" source="JJxQaTKSTEjUSaWtiFOi-73" target="JJxQaTKSTEjUSaWtiFOi-73">
          <mxGeometry width="50" height="50" relative="1" as="geometry">
            <mxPoint x="20" y="13.333333333333332" as="sourcePoint" />
            <mxPoint x="6" y="4" as="targetPoint" />
          </mxGeometry>
        </mxCell>
        <mxCell id="JJxQaTKSTEjUSaWtiFOi-80" value="" style="group" vertex="1" connectable="0" parent="1">
          <mxGeometry x="340" y="190" width="30" height="20" as="geometry" />
        </mxCell>
        <mxCell id="JJxQaTKSTEjUSaWtiFOi-81" value="" style="ellipse;whiteSpace=wrap;html=1;aspect=fixed;fillColor=#FFFFFF;gradientColor=none;gradientDirection=north;" vertex="1" parent="JJxQaTKSTEjUSaWtiFOi-80">
          <mxGeometry width="20" height="20" as="geometry" />
        </mxCell>
        <mxCell id="JJxQaTKSTEjUSaWtiFOi-82" value="" style="endArrow=none;html=1;rounded=0;entryX=1;entryY=0;entryDx=0;entryDy=0;exitX=0;exitY=1;exitDx=0;exitDy=0;" edge="1" parent="JJxQaTKSTEjUSaWtiFOi-80" source="JJxQaTKSTEjUSaWtiFOi-81" target="JJxQaTKSTEjUSaWtiFOi-81">
          <mxGeometry width="50" height="50" relative="1" as="geometry">
            <mxPoint x="6" y="17.333333333333332" as="sourcePoint" />
            <mxPoint x="26" y="4" as="targetPoint" />
          </mxGeometry>
        </mxCell>
        <mxCell id="JJxQaTKSTEjUSaWtiFOi-83" value="" style="endArrow=none;html=1;rounded=0;exitX=1;exitY=1;exitDx=0;exitDy=0;entryX=0;entryY=0;entryDx=0;entryDy=0;" edge="1" parent="JJxQaTKSTEjUSaWtiFOi-80" source="JJxQaTKSTEjUSaWtiFOi-81" target="JJxQaTKSTEjUSaWtiFOi-81">
          <mxGeometry width="50" height="50" relative="1" as="geometry">
            <mxPoint x="20" y="13.333333333333332" as="sourcePoint" />
            <mxPoint x="6" y="4" as="targetPoint" />
          </mxGeometry>
        </mxCell>
        <mxCell id="JJxQaTKSTEjUSaWtiFOi-84" value="" style="group" vertex="1" connectable="0" parent="1">
          <mxGeometry x="400" y="190" width="30" height="20" as="geometry" />
        </mxCell>
        <mxCell id="JJxQaTKSTEjUSaWtiFOi-85" value="" style="ellipse;whiteSpace=wrap;html=1;aspect=fixed;fillColor=#FFFFFF;gradientColor=none;gradientDirection=north;" vertex="1" parent="JJxQaTKSTEjUSaWtiFOi-84">
          <mxGeometry width="20" height="20" as="geometry" />
        </mxCell>
        <mxCell id="JJxQaTKSTEjUSaWtiFOi-86" value="" style="endArrow=none;html=1;rounded=0;entryX=1;entryY=0;entryDx=0;entryDy=0;exitX=0;exitY=1;exitDx=0;exitDy=0;" edge="1" parent="JJxQaTKSTEjUSaWtiFOi-84" source="JJxQaTKSTEjUSaWtiFOi-85" target="JJxQaTKSTEjUSaWtiFOi-85">
          <mxGeometry width="50" height="50" relative="1" as="geometry">
            <mxPoint x="6" y="17.333333333333332" as="sourcePoint" />
            <mxPoint x="26" y="4" as="targetPoint" />
          </mxGeometry>
        </mxCell>
        <mxCell id="JJxQaTKSTEjUSaWtiFOi-87" value="" style="endArrow=none;html=1;rounded=0;exitX=1;exitY=1;exitDx=0;exitDy=0;entryX=0;entryY=0;entryDx=0;entryDy=0;" edge="1" parent="JJxQaTKSTEjUSaWtiFOi-84" source="JJxQaTKSTEjUSaWtiFOi-85" target="JJxQaTKSTEjUSaWtiFOi-85">
          <mxGeometry width="50" height="50" relative="1" as="geometry">
            <mxPoint x="20" y="13.333333333333332" as="sourcePoint" />
            <mxPoint x="6" y="4" as="targetPoint" />
          </mxGeometry>
        </mxCell>
        <mxCell id="JJxQaTKSTEjUSaWtiFOi-88" value="" style="group" vertex="1" connectable="0" parent="1">
          <mxGeometry x="660" y="190" width="30" height="20" as="geometry" />
        </mxCell>
        <mxCell id="JJxQaTKSTEjUSaWtiFOi-89" value="" style="ellipse;whiteSpace=wrap;html=1;aspect=fixed;fillColor=#FFFFFF;gradientColor=none;gradientDirection=north;" vertex="1" parent="JJxQaTKSTEjUSaWtiFOi-88">
          <mxGeometry width="20" height="20" as="geometry" />
        </mxCell>
        <mxCell id="JJxQaTKSTEjUSaWtiFOi-90" value="" style="endArrow=none;html=1;rounded=0;entryX=1;entryY=0;entryDx=0;entryDy=0;exitX=0;exitY=1;exitDx=0;exitDy=0;" edge="1" parent="JJxQaTKSTEjUSaWtiFOi-88" source="JJxQaTKSTEjUSaWtiFOi-89" target="JJxQaTKSTEjUSaWtiFOi-89">
          <mxGeometry width="50" height="50" relative="1" as="geometry">
            <mxPoint x="6" y="17.333333333333332" as="sourcePoint" />
            <mxPoint x="26" y="4" as="targetPoint" />
          </mxGeometry>
        </mxCell>
        <mxCell id="JJxQaTKSTEjUSaWtiFOi-91" value="" style="endArrow=none;html=1;rounded=0;exitX=1;exitY=1;exitDx=0;exitDy=0;entryX=0;entryY=0;entryDx=0;entryDy=0;" edge="1" parent="JJxQaTKSTEjUSaWtiFOi-88" source="JJxQaTKSTEjUSaWtiFOi-89" target="JJxQaTKSTEjUSaWtiFOi-89">
          <mxGeometry width="50" height="50" relative="1" as="geometry">
            <mxPoint x="20" y="13.333333333333332" as="sourcePoint" />
            <mxPoint x="6" y="4" as="targetPoint" />
          </mxGeometry>
        </mxCell>
        <mxCell id="JJxQaTKSTEjUSaWtiFOi-92" value="" style="group" vertex="1" connectable="0" parent="1">
          <mxGeometry x="600" y="190" width="30" height="20" as="geometry" />
        </mxCell>
        <mxCell id="JJxQaTKSTEjUSaWtiFOi-93" value="" style="ellipse;whiteSpace=wrap;html=1;aspect=fixed;fillColor=#FFFFFF;gradientColor=none;gradientDirection=north;" vertex="1" parent="JJxQaTKSTEjUSaWtiFOi-92">
          <mxGeometry width="20" height="20" as="geometry" />
        </mxCell>
        <mxCell id="JJxQaTKSTEjUSaWtiFOi-94" value="" style="endArrow=none;html=1;rounded=0;entryX=1;entryY=0;entryDx=0;entryDy=0;exitX=0;exitY=1;exitDx=0;exitDy=0;" edge="1" parent="JJxQaTKSTEjUSaWtiFOi-92" source="JJxQaTKSTEjUSaWtiFOi-93" target="JJxQaTKSTEjUSaWtiFOi-93">
          <mxGeometry width="50" height="50" relative="1" as="geometry">
            <mxPoint x="6" y="17.333333333333332" as="sourcePoint" />
            <mxPoint x="26" y="4" as="targetPoint" />
          </mxGeometry>
        </mxCell>
        <mxCell id="JJxQaTKSTEjUSaWtiFOi-95" value="" style="endArrow=none;html=1;rounded=0;exitX=1;exitY=1;exitDx=0;exitDy=0;entryX=0;entryY=0;entryDx=0;entryDy=0;" edge="1" parent="JJxQaTKSTEjUSaWtiFOi-92" source="JJxQaTKSTEjUSaWtiFOi-93" target="JJxQaTKSTEjUSaWtiFOi-93">
          <mxGeometry width="50" height="50" relative="1" as="geometry">
            <mxPoint x="20" y="13.333333333333332" as="sourcePoint" />
            <mxPoint x="6" y="4" as="targetPoint" />
          </mxGeometry>
        </mxCell>
        <mxCell id="JJxQaTKSTEjUSaWtiFOi-96" value="" style="group" vertex="1" connectable="0" parent="1">
          <mxGeometry x="540" y="190" width="30" height="20" as="geometry" />
        </mxCell>
        <mxCell id="JJxQaTKSTEjUSaWtiFOi-97" value="" style="ellipse;whiteSpace=wrap;html=1;aspect=fixed;fillColor=#FFFFFF;gradientColor=none;gradientDirection=north;" vertex="1" parent="JJxQaTKSTEjUSaWtiFOi-96">
          <mxGeometry width="20" height="20" as="geometry" />
        </mxCell>
        <mxCell id="JJxQaTKSTEjUSaWtiFOi-98" value="" style="endArrow=none;html=1;rounded=0;entryX=1;entryY=0;entryDx=0;entryDy=0;exitX=0;exitY=1;exitDx=0;exitDy=0;" edge="1" parent="JJxQaTKSTEjUSaWtiFOi-96" source="JJxQaTKSTEjUSaWtiFOi-97" target="JJxQaTKSTEjUSaWtiFOi-97">
          <mxGeometry width="50" height="50" relative="1" as="geometry">
            <mxPoint x="6" y="17.333333333333332" as="sourcePoint" />
            <mxPoint x="26" y="4" as="targetPoint" />
          </mxGeometry>
        </mxCell>
        <mxCell id="JJxQaTKSTEjUSaWtiFOi-99" value="" style="endArrow=none;html=1;rounded=0;exitX=1;exitY=1;exitDx=0;exitDy=0;entryX=0;entryY=0;entryDx=0;entryDy=0;" edge="1" parent="JJxQaTKSTEjUSaWtiFOi-96" source="JJxQaTKSTEjUSaWtiFOi-97" target="JJxQaTKSTEjUSaWtiFOi-97">
          <mxGeometry width="50" height="50" relative="1" as="geometry">
            <mxPoint x="20" y="13.333333333333332" as="sourcePoint" />
            <mxPoint x="6" y="4" as="targetPoint" />
          </mxGeometry>
        </mxCell>
        <mxCell id="JJxQaTKSTEjUSaWtiFOi-127" style="edgeStyle=orthogonalEdgeStyle;rounded=0;orthogonalLoop=1;jettySize=auto;html=1;exitX=0.5;exitY=0;exitDx=0;exitDy=0;entryX=0.5;entryY=1;entryDx=0;entryDy=0;" edge="1" parent="1" source="JJxQaTKSTEjUSaWtiFOi-100" target="JJxQaTKSTEjUSaWtiFOi-125">
          <mxGeometry relative="1" as="geometry" />
        </mxCell>
        <mxCell id="JJxQaTKSTEjUSaWtiFOi-100" value="CTR Gates" style="text;html=1;strokeColor=none;fillColor=none;align=center;verticalAlign=middle;whiteSpace=wrap;rounded=0;" vertex="1" parent="1">
          <mxGeometry x="322" y="160" width="80" height="30" as="geometry" />
        </mxCell>
        <mxCell id="JJxQaTKSTEjUSaWtiFOi-128" style="edgeStyle=orthogonalEdgeStyle;rounded=0;orthogonalLoop=1;jettySize=auto;html=1;exitX=0.5;exitY=0;exitDx=0;exitDy=0;entryX=0.546;entryY=1.05;entryDx=0;entryDy=0;entryPerimeter=0;" edge="1" parent="1" source="JJxQaTKSTEjUSaWtiFOi-101" target="JJxQaTKSTEjUSaWtiFOi-126">
          <mxGeometry relative="1" as="geometry" />
        </mxCell>
        <mxCell id="JJxQaTKSTEjUSaWtiFOi-101" value="CVR Gates" style="text;html=1;strokeColor=none;fillColor=none;align=center;verticalAlign=middle;whiteSpace=wrap;rounded=0;" vertex="1" parent="1">
          <mxGeometry x="580" y="160" width="80" height="30" as="geometry" />
        </mxCell>
        <mxCell id="JJxQaTKSTEjUSaWtiFOi-102" value="⍺1" style="text;html=1;strokeColor=none;fillColor=none;align=center;verticalAlign=middle;whiteSpace=wrap;rounded=0;" vertex="1" parent="1">
          <mxGeometry x="319" y="189" width="20" height="20" as="geometry" />
        </mxCell>
        <mxCell id="JJxQaTKSTEjUSaWtiFOi-103" value="⍺2" style="text;html=1;strokeColor=none;fillColor=none;align=center;verticalAlign=middle;whiteSpace=wrap;rounded=0;" vertex="1" parent="1">
          <mxGeometry x="378" y="189" width="20" height="20" as="geometry" />
        </mxCell>
        <mxCell id="JJxQaTKSTEjUSaWtiFOi-104" value="ß3" style="text;html=1;strokeColor=none;fillColor=none;align=center;verticalAlign=middle;whiteSpace=wrap;rounded=0;" vertex="1" parent="1">
          <mxGeometry x="696" y="189" width="20" height="20" as="geometry" />
        </mxCell>
        <mxCell id="JJxQaTKSTEjUSaWtiFOi-105" value="⍺3" style="text;html=1;strokeColor=none;fillColor=none;align=center;verticalAlign=middle;whiteSpace=wrap;rounded=0;" vertex="1" parent="1">
          <mxGeometry x="439" y="189" width="20" height="20" as="geometry" />
        </mxCell>
        <mxCell id="JJxQaTKSTEjUSaWtiFOi-106" value="" style="endArrow=classic;html=1;rounded=0;" edge="1" parent="1">
          <mxGeometry width="50" height="50" relative="1" as="geometry">
            <mxPoint x="440" y="200" as="sourcePoint" />
            <mxPoint x="420" y="200" as="targetPoint" />
          </mxGeometry>
        </mxCell>
        <mxCell id="JJxQaTKSTEjUSaWtiFOi-107" value="" style="endArrow=classic;html=1;rounded=0;" edge="1" parent="1">
          <mxGeometry width="50" height="50" relative="1" as="geometry">
            <mxPoint x="380" y="199" as="sourcePoint" />
            <mxPoint x="360" y="199" as="targetPoint" />
          </mxGeometry>
        </mxCell>
        <mxCell id="JJxQaTKSTEjUSaWtiFOi-108" value="" style="endArrow=classic;html=1;rounded=0;" edge="1" parent="1">
          <mxGeometry width="50" height="50" relative="1" as="geometry">
            <mxPoint x="320" y="200" as="sourcePoint" />
            <mxPoint x="300" y="200" as="targetPoint" />
          </mxGeometry>
        </mxCell>
        <mxCell id="JJxQaTKSTEjUSaWtiFOi-110" value="ß1" style="text;html=1;strokeColor=none;fillColor=none;align=center;verticalAlign=middle;whiteSpace=wrap;rounded=0;" vertex="1" parent="1">
          <mxGeometry x="579" y="190" width="20" height="20" as="geometry" />
        </mxCell>
        <mxCell id="JJxQaTKSTEjUSaWtiFOi-111" value="ß2" style="text;html=1;strokeColor=none;fillColor=none;align=center;verticalAlign=middle;whiteSpace=wrap;rounded=0;" vertex="1" parent="1">
          <mxGeometry x="638" y="189" width="20" height="20" as="geometry" />
        </mxCell>
        <mxCell id="JJxQaTKSTEjUSaWtiFOi-113" value="" style="endArrow=classic;html=1;rounded=0;" edge="1" parent="1">
          <mxGeometry width="50" height="50" relative="1" as="geometry">
            <mxPoint x="700" y="200" as="sourcePoint" />
            <mxPoint x="680" y="200" as="targetPoint" />
          </mxGeometry>
        </mxCell>
        <mxCell id="JJxQaTKSTEjUSaWtiFOi-114" value="" style="endArrow=classic;html=1;rounded=0;" edge="1" parent="1">
          <mxGeometry width="50" height="50" relative="1" as="geometry">
            <mxPoint x="640" y="200" as="sourcePoint" />
            <mxPoint x="620" y="200" as="targetPoint" />
          </mxGeometry>
        </mxCell>
        <mxCell id="JJxQaTKSTEjUSaWtiFOi-115" value="" style="endArrow=classic;html=1;rounded=0;" edge="1" parent="1">
          <mxGeometry width="50" height="50" relative="1" as="geometry">
            <mxPoint x="580" y="200" as="sourcePoint" />
            <mxPoint x="560" y="200" as="targetPoint" />
          </mxGeometry>
        </mxCell>
        <mxCell id="JJxQaTKSTEjUSaWtiFOi-117" value="" style="endArrow=none;html=1;rounded=0;exitX=0.75;exitY=0;exitDx=0;exitDy=0;" edge="1" parent="1" source="JJxQaTKSTEjUSaWtiFOi-68">
          <mxGeometry width="50" height="50" relative="1" as="geometry">
            <mxPoint x="393" y="250" as="sourcePoint" />
            <mxPoint x="293" y="210" as="targetPoint" />
          </mxGeometry>
        </mxCell>
        <mxCell id="JJxQaTKSTEjUSaWtiFOi-118" value="" style="endArrow=none;html=1;rounded=0;exitX=0.5;exitY=0;exitDx=0;exitDy=0;" edge="1" parent="1" source="JJxQaTKSTEjUSaWtiFOi-69">
          <mxGeometry width="50" height="50" relative="1" as="geometry">
            <mxPoint x="456" y="260" as="sourcePoint" />
            <mxPoint x="350" y="210" as="targetPoint" />
          </mxGeometry>
        </mxCell>
        <mxCell id="JJxQaTKSTEjUSaWtiFOi-119" value="" style="endArrow=none;html=1;rounded=0;exitX=0.5;exitY=0;exitDx=0;exitDy=0;" edge="1" parent="1" source="JJxQaTKSTEjUSaWtiFOi-70">
          <mxGeometry width="50" height="50" relative="1" as="geometry">
            <mxPoint x="516" y="260" as="sourcePoint" />
            <mxPoint x="410" y="210" as="targetPoint" />
          </mxGeometry>
        </mxCell>
        <mxCell id="JJxQaTKSTEjUSaWtiFOi-120" value="" style="endArrow=none;html=1;rounded=0;exitX=0.25;exitY=0;exitDx=0;exitDy=0;" edge="1" parent="1" source="JJxQaTKSTEjUSaWtiFOi-68">
          <mxGeometry width="50" height="50" relative="1" as="geometry">
            <mxPoint x="433" y="260" as="sourcePoint" />
            <mxPoint x="553" y="210" as="targetPoint" />
          </mxGeometry>
        </mxCell>
        <mxCell id="JJxQaTKSTEjUSaWtiFOi-121" value="" style="endArrow=none;html=1;rounded=0;exitX=0.5;exitY=0;exitDx=0;exitDy=0;" edge="1" parent="1" source="JJxQaTKSTEjUSaWtiFOi-69">
          <mxGeometry width="50" height="50" relative="1" as="geometry">
            <mxPoint x="503" y="279" as="sourcePoint" />
            <mxPoint x="613" y="209" as="targetPoint" />
          </mxGeometry>
        </mxCell>
        <mxCell id="JJxQaTKSTEjUSaWtiFOi-123" value="" style="endArrow=none;html=1;rounded=0;exitX=0.25;exitY=0;exitDx=0;exitDy=0;" edge="1" parent="1" source="JJxQaTKSTEjUSaWtiFOi-70">
          <mxGeometry width="50" height="50" relative="1" as="geometry">
            <mxPoint x="539" y="261" as="sourcePoint" />
            <mxPoint x="671.5" y="210" as="targetPoint" />
          </mxGeometry>
        </mxCell>
        <mxCell id="JJxQaTKSTEjUSaWtiFOi-124" value="" style="endArrow=classic;html=1;rounded=0;" edge="1" parent="1">
          <mxGeometry width="50" height="50" relative="1" as="geometry">
            <mxPoint x="480" y="318" as="sourcePoint" />
            <mxPoint x="480.5" y="294" as="targetPoint" />
          </mxGeometry>
        </mxCell>
        <mxCell id="JJxQaTKSTEjUSaWtiFOi-134" style="edgeStyle=orthogonalEdgeStyle;rounded=0;orthogonalLoop=1;jettySize=auto;html=1;exitX=0.5;exitY=0;exitDx=0;exitDy=0;entryX=0.5;entryY=1;entryDx=0;entryDy=0;" edge="1" parent="1" source="JJxQaTKSTEjUSaWtiFOi-125" target="JJxQaTKSTEjUSaWtiFOi-129">
          <mxGeometry relative="1" as="geometry" />
        </mxCell>
        <mxCell id="JJxQaTKSTEjUSaWtiFOi-150" style="edgeStyle=orthogonalEdgeStyle;rounded=0;orthogonalLoop=1;jettySize=auto;html=1;exitX=0.75;exitY=0;exitDx=0;exitDy=0;entryX=0.415;entryY=1.075;entryDx=0;entryDy=0;entryPerimeter=0;" edge="1" parent="1" source="JJxQaTKSTEjUSaWtiFOi-125" target="JJxQaTKSTEjUSaWtiFOi-131">
          <mxGeometry relative="1" as="geometry">
            <Array as="points">
              <mxPoint x="410" y="120" />
              <mxPoint x="480" y="120" />
            </Array>
          </mxGeometry>
        </mxCell>
        <mxCell id="JJxQaTKSTEjUSaWtiFOi-125" value="Concat" style="rounded=0;whiteSpace=wrap;html=1;fillColor=#E8E8E8;gradientColor=none;gradientDirection=north;strokeColor=none;" vertex="1" parent="1">
          <mxGeometry x="263" y="130" width="196" height="20" as="geometry" />
        </mxCell>
        <mxCell id="JJxQaTKSTEjUSaWtiFOi-135" style="edgeStyle=orthogonalEdgeStyle;rounded=0;orthogonalLoop=1;jettySize=auto;html=1;exitX=0.5;exitY=0;exitDx=0;exitDy=0;entryX=0.5;entryY=1;entryDx=0;entryDy=0;" edge="1" parent="1" source="JJxQaTKSTEjUSaWtiFOi-126" target="JJxQaTKSTEjUSaWtiFOi-130">
          <mxGeometry relative="1" as="geometry" />
        </mxCell>
        <mxCell id="JJxQaTKSTEjUSaWtiFOi-156" style="edgeStyle=orthogonalEdgeStyle;rounded=0;orthogonalLoop=1;jettySize=auto;html=1;exitX=0.25;exitY=0;exitDx=0;exitDy=0;entryX=0.585;entryY=1.1;entryDx=0;entryDy=0;entryPerimeter=0;" edge="1" parent="1" source="JJxQaTKSTEjUSaWtiFOi-126" target="JJxQaTKSTEjUSaWtiFOi-131">
          <mxGeometry relative="1" as="geometry">
            <Array as="points">
              <mxPoint x="566" y="120" />
              <mxPoint x="496" y="120" />
            </Array>
          </mxGeometry>
        </mxCell>
        <mxCell id="JJxQaTKSTEjUSaWtiFOi-126" value="Concat" style="rounded=0;whiteSpace=wrap;html=1;fillColor=#E8E8E8;gradientColor=none;gradientDirection=north;strokeColor=none;" vertex="1" parent="1">
          <mxGeometry x="517" y="130" width="196" height="20" as="geometry" />
        </mxCell>
        <mxCell id="JJxQaTKSTEjUSaWtiFOi-137" style="edgeStyle=orthogonalEdgeStyle;rounded=0;orthogonalLoop=1;jettySize=auto;html=1;exitX=0.5;exitY=0;exitDx=0;exitDy=0;entryX=0.5;entryY=1;entryDx=0;entryDy=0;" edge="1" parent="1" source="JJxQaTKSTEjUSaWtiFOi-129" target="JJxQaTKSTEjUSaWtiFOi-132">
          <mxGeometry relative="1" as="geometry" />
        </mxCell>
        <mxCell id="JJxQaTKSTEjUSaWtiFOi-129" value="CTR tower" style="rounded=0;whiteSpace=wrap;html=1;fillColor=#FFE6CC;gradientColor=none;gradientDirection=north;strokeColor=none;" vertex="1" parent="1">
          <mxGeometry x="300" y="80" width="120" height="30" as="geometry" />
        </mxCell>
        <mxCell id="JJxQaTKSTEjUSaWtiFOi-136" style="edgeStyle=orthogonalEdgeStyle;rounded=0;orthogonalLoop=1;jettySize=auto;html=1;exitX=0.5;exitY=0;exitDx=0;exitDy=0;entryX=0.5;entryY=1;entryDx=0;entryDy=0;" edge="1" parent="1" source="JJxQaTKSTEjUSaWtiFOi-130" target="JJxQaTKSTEjUSaWtiFOi-133">
          <mxGeometry relative="1" as="geometry" />
        </mxCell>
        <mxCell id="JJxQaTKSTEjUSaWtiFOi-130" value="CVR tower" style="rounded=0;whiteSpace=wrap;html=1;fillColor=#FFE6CC;gradientColor=none;gradientDirection=north;strokeColor=none;" vertex="1" parent="1">
          <mxGeometry x="556" y="80" width="120" height="30" as="geometry" />
        </mxCell>
        <mxCell id="JJxQaTKSTEjUSaWtiFOi-141" style="edgeStyle=orthogonalEdgeStyle;rounded=0;orthogonalLoop=1;jettySize=auto;html=1;exitX=0.25;exitY=0;exitDx=0;exitDy=0;entryX=1;entryY=0.5;entryDx=0;entryDy=0;" edge="1" parent="1" source="JJxQaTKSTEjUSaWtiFOi-131" target="JJxQaTKSTEjUSaWtiFOi-132">
          <mxGeometry relative="1" as="geometry">
            <Array as="points">
              <mxPoint x="465" y="40" />
            </Array>
          </mxGeometry>
        </mxCell>
        <mxCell id="JJxQaTKSTEjUSaWtiFOi-142" style="edgeStyle=orthogonalEdgeStyle;rounded=0;orthogonalLoop=1;jettySize=auto;html=1;exitX=0.75;exitY=0;exitDx=0;exitDy=0;entryX=0;entryY=0.5;entryDx=0;entryDy=0;" edge="1" parent="1" source="JJxQaTKSTEjUSaWtiFOi-131" target="JJxQaTKSTEjUSaWtiFOi-133">
          <mxGeometry relative="1" as="geometry">
            <Array as="points">
              <mxPoint x="512" y="40" />
            </Array>
          </mxGeometry>
        </mxCell>
        <mxCell id="JJxQaTKSTEjUSaWtiFOi-131" value="Bias tower" style="rounded=0;whiteSpace=wrap;html=1;fillColor=#E6E6E6;gradientColor=none;gradientDirection=north;strokeColor=none;" vertex="1" parent="1">
          <mxGeometry x="441" y="50" width="94" height="40" as="geometry" />
        </mxCell>
        <mxCell id="JJxQaTKSTEjUSaWtiFOi-147" style="edgeStyle=orthogonalEdgeStyle;rounded=0;orthogonalLoop=1;jettySize=auto;html=1;exitX=0.5;exitY=0;exitDx=0;exitDy=0;entryX=0.5;entryY=1;entryDx=0;entryDy=0;" edge="1" parent="1" source="JJxQaTKSTEjUSaWtiFOi-132" target="JJxQaTKSTEjUSaWtiFOi-145">
          <mxGeometry relative="1" as="geometry" />
        </mxCell>
        <mxCell id="JJxQaTKSTEjUSaWtiFOi-132" value="Sigmoid" style="rounded=0;whiteSpace=wrap;html=1;fillColor=#FFE6CC;gradientColor=none;gradientDirection=north;strokeColor=none;" vertex="1" parent="1">
          <mxGeometry x="311.5" y="30" width="87" height="20" as="geometry" />
        </mxCell>
        <mxCell id="JJxQaTKSTEjUSaWtiFOi-148" style="edgeStyle=orthogonalEdgeStyle;rounded=0;orthogonalLoop=1;jettySize=auto;html=1;exitX=0.5;exitY=0;exitDx=0;exitDy=0;entryX=0.5;entryY=1;entryDx=0;entryDy=0;" edge="1" parent="1" source="JJxQaTKSTEjUSaWtiFOi-133" target="JJxQaTKSTEjUSaWtiFOi-146">
          <mxGeometry relative="1" as="geometry" />
        </mxCell>
        <mxCell id="JJxQaTKSTEjUSaWtiFOi-133" value="Sigmoid" style="rounded=0;whiteSpace=wrap;html=1;fillColor=#FFE6CC;gradientColor=none;gradientDirection=north;strokeColor=none;" vertex="1" parent="1">
          <mxGeometry x="577.5" y="30" width="87" height="20" as="geometry" />
        </mxCell>
        <mxCell id="JJxQaTKSTEjUSaWtiFOi-145" value="CTR Output" style="rounded=0;whiteSpace=wrap;html=1;fillColor=#E6E6E6;gradientColor=none;gradientDirection=north;strokeColor=none;" vertex="1" parent="1">
          <mxGeometry x="330" y="-20" width="78" height="30" as="geometry" />
        </mxCell>
        <mxCell id="JJxQaTKSTEjUSaWtiFOi-146" value="CVR Output" style="rounded=0;whiteSpace=wrap;html=1;fillColor=#E6E6E6;gradientColor=none;gradientDirection=north;strokeColor=none;" vertex="1" parent="1">
          <mxGeometry x="582" y="-20" width="78" height="30" as="geometry" />
        </mxCell>
        <mxCell id="JJxQaTKSTEjUSaWtiFOi-157" value="" style="endArrow=classic;html=1;rounded=0;" edge="1" parent="1">
          <mxGeometry width="50" height="50" relative="1" as="geometry">
            <mxPoint x="370" y="318" as="sourcePoint" />
            <mxPoint x="370.5" y="294" as="targetPoint" />
          </mxGeometry>
        </mxCell>
        <mxCell id="JJxQaTKSTEjUSaWtiFOi-158" value="" style="endArrow=classic;html=1;rounded=0;" edge="1" parent="1">
          <mxGeometry width="50" height="50" relative="1" as="geometry">
            <mxPoint x="580" y="318" as="sourcePoint" />
            <mxPoint x="580.5" y="294" as="targetPoint" />
          </mxGeometry>
        </mxCell>
      </root>
    </mxGraphModel>
  </diagram>
</mxfile>
